<?xml version="1.0" encoding="UTF-8"?>
<svg version="1.1" xmlns="http://www.w3.org/2000/svg" width="500" height="500">
<path d="M0 0 C165 0 330 0 500 0 C500 165 500 330 500 500 C335 500 170 500 0 500 C0 335 0 170 0 0 Z " fill="#F7F6F3" transform="translate(0,0)"/>
<path d="M0 0 C10.53099324 -0.3044179 20.73861632 0.64175091 31.1875 1.8125 C32.88243718 1.99785177 34.57742487 2.18274221 36.27246094 2.3671875 C39.6364083 2.73469173 42.999807 3.10671201 46.36279297 3.48291016 C50.35668848 3.92964754 54.35190566 4.36310668 58.34765625 4.79296875 C69.99825105 6.06730685 81.56149318 7.64934089 93.13208008 9.51513672 C102.54042815 11.00416604 111.97726667 12.05637481 121.45874023 12.9609375 C122.53325439 13.06921875 123.60776855 13.1775 124.71484375 13.2890625 C126.13978149 13.42368896 126.13978149 13.42368896 127.59350586 13.56103516 C130 14 130 14 133 16 C133.34214613 18.67314843 133.49201095 21.10948119 133.50390625 23.7890625 C133.51389145 24.56631683 133.52387665 25.34357117 133.53416443 26.14437866 C133.5493712 27.79362665 133.55638943 29.44296714 133.5559082 31.09228516 C133.56242366 33.59566821 133.61673576 36.09498415 133.67382812 38.59765625 C133.83258107 53.32453276 133.83258107 53.32453276 128.60913086 58.66723633 C127.81261108 59.32695435 127.81261108 59.32695435 127 60 C125.88625 60.97646484 125.88625 60.97646484 124.75 61.97265625 C120.52460869 63.55117601 116.47584284 63.48751829 112 63.4375 C111.06389893 63.42992676 110.12779785 63.42235352 109.16333008 63.41455078 C96.72117518 63.12058248 86.95005802 60.02026063 78.06640625 51.046875 C70 42.25935551 70 42.25935551 70 37 C69.34 37 68.68 37 68 37 C67.75636719 37.71027344 67.51273438 38.42054688 67.26171875 39.15234375 C63.84805655 46.85686309 57.74975306 53.65696927 50 57 C38.95194267 60.39304177 21.97222771 59.85196081 11.30859375 55.3203125 C4.6665033 51.52162118 0.60050673 47.37188003 -2.40625 40.30859375 C-3.13277094 37.48376564 -3.10000555 34.90432776 -3 32 C-12.67897736 32.2846758 -22.07476405 33.34773157 -31.625 34.9375 C-32.65560547 35.10733398 -33.68621094 35.27716797 -34.74804688 35.45214844 C-39.68303475 36.30161356 -44.25597475 37.37285719 -49 39 C-51.71061275 39.22663986 -54.27148292 39.0940868 -57 39 C-56.95359375 39.73605469 -56.9071875 40.47210938 -56.859375 41.23046875 C-56.69564012 45.65715817 -56.60344099 49.08070411 -58.375 53.1875 C-62.38383092 55.9555023 -66.27600414 55.40568667 -71 55 C-72.83069903 51.87070822 -73.23931181 49.62356854 -73.1953125 46.015625 C-73.18886719 45.08105469 -73.18242187 44.14648438 -73.17578125 43.18359375 C-73.15902344 42.21550781 -73.14226562 41.24742187 -73.125 40.25 C-73.11597656 39.26644531 -73.10695312 38.28289062 -73.09765625 37.26953125 C-73.07412785 34.84610593 -73.04125368 32.42317778 -73 30 C-66.92136844 27.67948093 -60.82679886 25.63406882 -54.5625 23.875 C-45.32285771 21.2587495 -36.3329509 17.96917431 -27.32446289 14.65380859 C-6.34741316 7 -6.34741316 7 0 7 C0 4.69 0 2.38 0 0 Z " fill="#040404" transform="translate(220,219)"/>
<path d="M0 0 C11.43227487 -0.38178283 22.64650681 0.78913248 34 2 C34 2.33 34 2.66 34 3 C31.69 3 29.38 3 27 3 C27 3.66 27 4.32 27 5 C28.98 5 30.96 5 33 5 C33 5.33 33 5.66 33 6 C27.06 5.67 21.12 5.34 15 5 C14.9071875 8.526875 14.9071875 8.526875 14.8125 12.125 C14.78518799 12.85348145 14.75787598 13.58196289 14.72973633 14.33251953 C14.67110961 18.98105121 15.50736918 22.08812005 18 26 C20.87972711 27.08962647 23.04948185 26.99802073 26.125 26.875 C29 27 29 27 30.6171875 28.03125 C32.68957151 30.98176283 32.70878285 34.1303942 33 37.625 C33.62805126 43.80246207 34.71486479 49.18329218 37 55 C43.33393082 55.34548714 48.10261508 54.29342747 54 52 C54 52.99 54 53.98 54 55 C47.16208341 58.11339922 41.2137584 58.50837083 33.75 58.4375 C32.6369751 58.42920166 31.5239502 58.42090332 30.37719727 58.41235352 C19.57782598 58.18962887 10.68466125 56.8167753 2.625 48.9921875 C-1.68861772 43.70385809 -3.23325778 38.77419458 -3 32 C-12.67897736 32.2846758 -22.07476405 33.34773157 -31.625 34.9375 C-32.65560547 35.10733398 -33.68621094 35.27716797 -34.74804688 35.45214844 C-39.68303475 36.30161356 -44.25597475 37.37285719 -49 39 C-51.71061275 39.22663986 -54.27148292 39.0940868 -57 39 C-56.95359375 39.73605469 -56.9071875 40.47210938 -56.859375 41.23046875 C-56.69564012 45.65715817 -56.60344099 49.08070411 -58.375 53.1875 C-62.38383092 55.9555023 -66.27600414 55.40568667 -71 55 C-72.83069903 51.87070822 -73.23931181 49.62356854 -73.1953125 46.015625 C-73.18886719 45.08105469 -73.18242187 44.14648438 -73.17578125 43.18359375 C-73.15902344 42.21550781 -73.14226562 41.24742187 -73.125 40.25 C-73.11597656 39.26644531 -73.10695312 38.28289062 -73.09765625 37.26953125 C-73.07412785 34.84610593 -73.04125368 32.42317778 -73 30 C-66.92136844 27.67948093 -60.82679886 25.63406882 -54.5625 23.875 C-45.32285771 21.2587495 -36.3329509 17.96917431 -27.32446289 14.65380859 C-6.34741316 7 -6.34741316 7 0 7 C0 4.69 0 2.38 0 0 Z " fill="#060606" transform="translate(220,219)"/>
<path d="M0 0 C0.91645798 -0.00807175 1.83291595 -0.01614349 2.77714539 -0.02445984 C4.71086794 -0.0382123 6.64461387 -0.04897343 8.57836914 -0.05688477 C10.51431636 -0.06832482 12.45023407 -0.08864764 14.38598633 -0.1184082 C28.17360388 -0.32950935 40.79804837 1.00279227 54.19921875 4.23828125 C55.56256426 4.55335098 56.92607991 4.86768578 58.28979492 5.18115234 C85.8791964 11.71252086 109.82224503 26.03316143 131.19921875 44.23828125 C132.40384766 45.25728516 132.40384766 45.25728516 133.6328125 46.296875 C138.62289775 50.61376157 143.01538421 55.14279404 147.19921875 60.23828125 C147.64168945 60.7684082 148.08416016 61.29853516 148.54003906 61.84472656 C155.52943304 70.2366128 161.81893111 78.70000256 167.19921875 88.23828125 C167.55580566 88.85864258 167.91239258 89.47900391 168.27978516 90.11816406 C178.54977464 108.09398441 190.30330497 132.01912431 189.19921875 153.23828125 C187.87921875 153.23828125 186.55921875 153.23828125 185.19921875 153.23828125 C184.96847656 152.12453125 184.73773438 151.01078125 184.5 149.86328125 C177.52900566 116.92833303 164.50523781 83.4506449 139.68017578 59.70385742 C138.19921875 58.23828125 138.19921875 58.23828125 136.26171875 55.73828125 C120.5855423 36.73685525 95.79105797 23.8283531 73.19921875 15.23828125 C72.54211914 14.9870752 71.88501953 14.73586914 71.20800781 14.47705078 C30.05665279 -0.95738508 -17.47914038 1.08537796 -57.65283203 18.47265625 C-77.73520737 27.72990627 -94.84021658 40.06417919 -110.80078125 55.23828125 C-111.48398438 55.85703125 -112.1671875 56.47578125 -112.87109375 57.11328125 C-138.73915351 81.35782262 -155.27382807 118.4712808 -159.80078125 153.23828125 C-161.12078125 153.23828125 -162.44078125 153.23828125 -163.80078125 153.23828125 C-164.00726369 146.7663472 -163.42522584 141.18259824 -161.80078125 134.92578125 C-161.5785791 134.06331787 -161.35637695 133.20085449 -161.12744141 132.31225586 C-154.88224537 109.13353671 -143.89011024 86.90703914 -128.80078125 68.23828125 C-128.34703125 67.67173828 -127.89328125 67.10519531 -127.42578125 66.52148438 C-101.81957165 34.76832957 -68.21560103 13.7945501 -28.82324219 3.75537109 C-27.48491845 3.41319706 -26.14948258 3.05950281 -24.81738281 2.69384766 C-16.6357963 0.50199053 -8.43928438 0.07306201 0 0 Z " fill="#100F0F" transform="translate(237.80078125,71.76171875)"/>
<path d="M0 0 C2.32421875 0.0859375 2.32421875 0.0859375 5 1 C6.51953125 3.8515625 6.51953125 3.8515625 7.8125 7.625 C15.5344483 28.79291168 28.74023741 46.60302807 44 63 C44.65097656 63.71671875 45.30195312 64.4334375 45.97265625 65.171875 C72.87291524 93.57523131 115.49897292 113.12847305 154.57414246 114.29156494 C158.5289467 114.36796394 162.48204447 114.38385539 166.4375 114.375 C167.27016388 114.37512085 168.10282776 114.3752417 168.96072388 114.37536621 C182.66196091 114.3471335 195.64448177 113.21473897 209 110 C210.34999048 109.70708647 211.70023472 109.41533894 213.05078125 109.125 C245.90786343 101.35310305 278.52574106 81.0308737 300 55 C300.68449219 54.21496094 301.36898438 53.42992187 302.07421875 52.62109375 C315.29940464 37.13400871 324.57065387 18.85910941 332 0 C333.65 0 335.3 0 337 0 C330.93451619 17.87591774 322.54735837 34.05415079 311 49 C310.34128906 49.88171875 309.68257813 50.7634375 309.00390625 51.671875 C282.65383102 85.57255658 246.3942629 106.22811906 205.125 116.25 C204.12702393 116.49508301 204.12702393 116.49508301 203.10888672 116.74511719 C177.52298119 122.67533201 146.06285686 121.27165682 121 114 C120.07896484 113.73767578 119.15792969 113.47535156 118.20898438 113.20507812 C94.22810184 106.19735001 71.68813077 94.7420467 53 78 C52.2562915 77.33653564 52.2562915 77.33653564 51.49755859 76.65966797 C47.95256242 73.48725253 44.4672525 70.25711598 41 67 C40.36449219 66.41863281 39.72898438 65.83726562 39.07421875 65.23828125 C22.53004713 49.56277735 6.34106471 24.95711961 0 3 C0 2.01 0 1.02 0 0 Z " fill="#0F0F0F" transform="translate(82,309)"/>
<path d="M0 0 C19.23404255 -0.38297872 19.23404255 -0.38297872 24 2 C24.28756297 4.6503226 24.46773109 7.21684759 24.5625 9.875 C24.74411602 15.51760981 24.74411602 15.51760981 26 21 C26.928125 20.938125 27.85625 20.87625 28.8125 20.8125 C32 21 32 21 33.5625 22.02734375 C35.71212583 24.97723789 36.36778156 28.25423575 37.1875 31.75 C37.36474609 32.4409375 37.54199219 33.131875 37.72460938 33.84375 C38.80615663 38.28686303 39.37672943 42.39810507 39 47 C33.79222083 51.33981597 28.45242988 51.1075405 22 51 C17.38790291 42.08924932 16.81339101 32.82490724 16 23 C15.18015625 23.05800781 14.3603125 23.11601562 13.515625 23.17578125 C4.63631039 23.54752289 4.63631039 23.54752289 1.3125 20.6875 C-0.79051437 16.38132773 -1.13563125 13.19498545 -1.125 8.4375 C-1.12757813 7.28121094 -1.13015625 6.12492188 -1.1328125 4.93359375 C-1 2 -1 2 0 0 Z " fill="#B4B4B4" transform="translate(235,224)"/>
<path d="M0 0 C4.66801549 0.31613361 9.33423585 0.65224118 14 1 C15.01835937 1.0721875 16.03671875 1.144375 17.0859375 1.21875 C17.96507812 1.2909375 18.84421875 1.363125 19.75 1.4375 C20.91789062 1.52837891 20.91789062 1.52837891 22.109375 1.62109375 C24 2 24 2 26 4 C26.34375 6.05859375 26.34375 6.05859375 26.5 8.4375 C26.73068183 11.93809684 26.96150563 12.94225845 29 16 C30.0725 15.731875 31.145 15.46375 32.25 15.1875 C36 15 36 15 38.16015625 16.90234375 C40.62119191 21.04587089 40.86082236 24.63266848 41.1875 29.375 C41.32574204 31.02873654 41.46504798 32.68238453 41.60546875 34.3359375 C41.66782715 35.12323242 41.73018555 35.91052734 41.79443359 36.72167969 C42.07554445 39.8372694 42.52095696 42.90913101 43 46 C39.36985068 48.26543153 36.16299077 48.36196546 31.9375 48.4375 C30.70902344 48.47746094 29.48054688 48.51742187 28.21484375 48.55859375 C25 48 25 48 23.12890625 45.82421875 C21.97613826 42.94030437 21.39795438 40.45085575 21 37.375 C19.47148417 26.66943993 19.47148417 26.66943993 15 17 C14.31292969 17.10699219 13.62585938 17.21398437 12.91796875 17.32421875 C12.01691406 17.44410156 11.11585938 17.56398437 10.1875 17.6875 C9.29417969 17.81511719 8.40085937 17.94273437 7.48046875 18.07421875 C5 18 5 18 3.25 16.6484375 C-0.65959342 11.49266118 -0.2163932 6.1912499 0 0 Z " fill="#B4B4B4" transform="translate(300,231)"/>
<path d="M0 0 C1.26099014 0.00031723 1.26099014 0.00031723 2.54745483 0.00064087 C14.4694007 0.03057448 25.85470044 0.51088567 37.39160156 3.79833984 C39.42508746 4.37150138 41.4649355 4.85756083 43.5234375 5.33203125 C61.08888777 9.63966908 79.09375702 18.3789053 93.4375 29.375 C94.67693359 30.30505859 94.67693359 30.30505859 95.94140625 31.25390625 C127.70168748 55.85694101 150.60130455 90.39953325 157.4375 130.375 C157.4375 131.365 157.4375 132.355 157.4375 133.375 C156.4475 133.375 155.4575 133.375 154.4375 133.375 C154.25743408 132.44772095 154.25743408 132.44772095 154.07373047 131.50170898 C151.59371364 118.93247974 149.0277704 106.97201594 143.4375 95.375 C143.05851562 94.57884277 142.67953125 93.78268555 142.2890625 92.96240234 C124.6199416 56.3415031 95.57469045 28.13107914 57.4375 13.375 C56.55320312 12.96765625 55.66890625 12.5603125 54.7578125 12.140625 C21.67352095 -2.38418592 -21.70962419 -0.18445044 -54.87109375 12.45703125 C-87.27929278 25.40304066 -111.97593212 46.78250344 -131.5625 75.375 C-132.37847656 76.550625 -132.37847656 76.550625 -133.2109375 77.75 C-138.91675904 86.57668526 -142.58894443 96.68312937 -146.5625 106.375 C-146.90619629 107.1882373 -147.24989258 108.00147461 -147.60400391 108.83935547 C-148.5865028 111.43849799 -149.24905466 113.96449598 -149.8515625 116.67578125 C-150.07070312 117.65224609 -150.28984375 118.62871094 -150.515625 119.63476562 C-150.73734375 120.64216797 -150.9590625 121.64957031 -151.1875 122.6875 C-151.41695313 123.71423828 -151.64640625 124.74097656 -151.8828125 125.79882812 C-152.4464408 128.32341321 -153.00620622 130.84879047 -153.5625 133.375 C-154.2225 133.375 -154.8825 133.375 -155.5625 133.375 C-153.33786632 102.23012854 -136.38980887 71.95530683 -114.98339844 49.84716797 C-113.54913861 48.3611565 -112.13792224 46.85539917 -110.7265625 45.34765625 C-99.07340691 33.08998583 -85.50282519 24.15453297 -70.5625 16.375 C-69.4075 15.75882813 -68.2525 15.14265625 -67.0625 14.5078125 C-59.42162091 10.67031742 -51.63477491 7.98845713 -43.4375 5.5625 C-42.46039063 5.2722998 -41.48328125 4.98209961 -40.4765625 4.68310547 C-26.99271397 0.86373327 -13.92299777 -0.03233887 0 0 Z " fill="#1D1D1C" transform="translate(249.5625,91.625)"/>
<path d="M0 0 C0.99 0 1.98 0 3 0 C3.40089844 0.99257813 3.80179687 1.98515625 4.21484375 3.0078125 C13.23266978 24.77795625 27.60410015 45.13429924 46 60 C46.8971875 60.74636719 47.794375 61.49273437 48.71875 62.26171875 C65.48052018 75.74309199 84.37477537 85.09469741 105 91 C106.18130493 91.34877197 106.18130493 91.34877197 107.38647461 91.70458984 C145.28827288 102.51819389 188.11846701 96.44011804 222.49023438 77.77832031 C234.77076919 70.86986178 245.566047 62.420369 256 53 C256.81210937 52.27296875 257.62421875 51.5459375 258.4609375 50.796875 C273.41991851 36.64794711 283.14919461 18.32637351 292 0 C292.66 0 293.32 0 294 0 C288.34123296 20.15935759 274.80653551 36.75596879 261 52 C260.33613281 52.74894531 259.67226563 53.49789062 258.98828125 54.26953125 C234.56146347 80.34310079 195.23998334 98.04886163 159.67913818 99.31430054 C155.72333605 99.41263812 151.76942066 99.43901563 147.8125 99.4375 C146.55885147 99.43860275 146.55885147 99.43860275 145.27987671 99.43972778 C102.19090422 99.34053089 63.7466476 81.91565712 33 52 C30.5489857 49.42212161 28.25872261 46.7468144 26 44 C25.38769531 43.28714844 24.77539062 42.57429688 24.14453125 41.83984375 C16.31789512 32.48224886 0 12.79271024 0 0 Z " fill="#1C1C1B" transform="translate(103,309)"/>
<path d="M0 0 C3.4375 2 3.4375 2 6 5 C6.69939361 9.00561797 6.99756288 11.30450851 4.93359375 14.8125 C2.28002275 18.1076807 0.45804126 19.83431349 -3.75 20.3125 C-7.80901885 19.92220973 -9.83301684 18.50412622 -13 16 C-14.57455739 12.85088521 -14.34799118 10.47991184 -14 7 C-10.42200413 0.99217111 -6.89711987 -0.68971199 0 0 Z " fill="#F2F1EE" transform="translate(309,134)"/>
<path d="M0 0 C4.00079356 2.4449294 5.65936873 3.95918222 7.125 8.4375 C6.96449409 13.01191855 6.16326735 14.68610087 3 18 C0.0722477 19.33811359 -2.87623767 20.23908353 -6 21 C-6.98929461 19.13032395 -7.96600469 17.25398622 -8.9375 15.375 C-9.75541016 13.80878906 -9.75541016 13.80878906 -10.58984375 12.2109375 C-11.96669717 9.07583082 -12.59842216 6.38545368 -13 3 C-8.47355803 0.35037543 -5.24616627 -0.74945232 0 0 Z " fill="#F0EFEC" transform="translate(204,132)"/>
<path d="M0 0 C-26.83845294 14.5842397 -53.79702977 18.777831 -84 17 C-84 16.67 -84 16.34 -84 16 C-83.36835938 15.9906543 -82.73671875 15.98130859 -82.0859375 15.97167969 C-56.54229816 15.50239813 -30.51427372 12.99353765 -7.59375 0.6875 C-3.91422297 -1.04027791 -3.53207483 -1.20455797 0 0 Z " fill="#1A1A1A" transform="translate(325,390)"/>
<path d="M0 0 C0.99 0 1.98 0 3 0 C3.40089844 0.99257813 3.80179687 1.98515625 4.21484375 3.0078125 C12.70815597 23.51171524 26.21784176 44.42940556 44 58 C43.01 58.33 42.02 58.66 41 59 C35.10018079 55.21642029 30.43214627 49.35184108 26 44 C25.38511719 43.28457031 24.77023438 42.56914062 24.13671875 41.83203125 C16.31357522 32.47247878 0 12.79156231 0 0 Z " fill="#232222" transform="translate(103,309)"/>
<path d="M0 0 C-1.39798828 0.70962891 -1.39798828 0.70962891 -2.82421875 1.43359375 C-15.54270152 7.99017063 -27.03514121 15.7673746 -38 25 C-38.83273438 25.69738281 -39.66546875 26.39476562 -40.5234375 27.11328125 C-46.05689515 31.90610687 -50.69353856 37.03454958 -55.1875 42.8125 C-57 45 -57 45 -59 46 C-58.01696259 40.70316312 -54.61359313 37.81402081 -51 34 C-50.27756104 33.22873779 -50.27756104 33.22873779 -49.54052734 32.44189453 C-40.38635046 22.73155716 -14.61384761 -4.38415428 0 0 Z " fill="#1D1C1C" transform="translate(185,108)"/>
<path d="M0 0 C3.29222572 0.26214444 4.22141616 1.22174712 6.61328125 3.6171875 C7.52285241 4.69490355 8.42234211 5.78119448 9.3125 6.875 C9.77978516 7.41769531 10.24707031 7.96039063 10.72851562 8.51953125 C12.05078125 10.1171875 12.05078125 10.1171875 14 13 C13.67 13.99 13.34 14.98 13 16 C9.00073014 13.02911382 6.07881696 9.87051275 3 6 C3.144375 6.66386719 3.28875 7.32773438 3.4375 8.01171875 C3.623125 8.89472656 3.80875 9.77773437 4 10.6875 C4.185625 11.55761719 4.37125 12.42773438 4.5625 13.32421875 C4.98972047 15.93712964 5.07616201 18.35813038 5 21 C4.02417969 20.4946875 3.04835937 19.989375 2.04296875 19.46875 C0.7579742 18.81218344 -0.52719101 18.1559508 -1.8125 17.5 C-2.45509766 17.16613281 -3.09769531 16.83226562 -3.75976562 16.48828125 C-6.69547699 14.99760916 -8.66126517 14 -12 14 C-12.33 12.68 -12.66 11.36 -13 10 C-8.54348712 10 -6.64999003 10.96522259 -2.75 13 C-1.67234375 13.556875 -0.5946875 14.11375 0.515625 14.6875 C1.74539062 15.3371875 1.74539062 15.3371875 3 16 C2.7834375 15.34773437 2.566875 14.69546875 2.34375 14.0234375 C0.81497692 9.22478868 -0.40269324 5.10078102 0 0 Z " fill="#171716" transform="translate(177,143)"/>
<path d="M0 0 C10.33142335 0.9392203 19.01885961 4.71938888 28.3125 9.1875 C29.32852295 9.67581299 30.3445459 10.16412598 31.39135742 10.66723633 C38.72280627 14.25099096 45.48101312 18.0629002 52 23 C52.96808594 23.71414062 53.93617188 24.42828125 54.93359375 25.1640625 C60.10402437 29.10821901 60.10402437 29.10821901 62 31 C62 31.99 62 32.98 62 34 C61.53851563 33.64808594 61.07703125 33.29617187 60.6015625 32.93359375 C58.41092584 31.27546363 56.20744775 29.6356826 54 28 C53.27554688 27.45859375 52.55109375 26.9171875 51.8046875 26.359375 C40.7554583 18.34400195 28.76967682 11.81221811 16 7 C15.31744141 6.74057617 14.63488281 6.48115234 13.93164062 6.21386719 C9.29621318 4.45272977 4.65164849 2.7178042 0 1 C0 0.67 0 0.34 0 0 Z " fill="#1D1D1C" transform="translate(291,98)"/>
<path d="M0 0 C3.4375 2 3.4375 2 6 5 C6.69939361 9.00561797 6.99756288 11.30450851 4.93359375 14.8125 C2.28002275 18.1076807 0.45804126 19.83431349 -3.75 20.3125 C-7.80901885 19.92220973 -9.83301684 18.50412622 -13 16 C-14.57455739 12.85088521 -14.34799118 10.47991184 -14 7 C-10.42200413 0.99217111 -6.89711987 -0.68971199 0 0 Z M-8.375 4.375 C-10.96989728 8.56675715 -11.26713004 11.01357265 -11 16 C-9.07132033 18.32444564 -9.07132033 18.32444564 -5.6875 18.5 C-1.83525552 18.31558734 -1.83525552 18.31558734 0.9375 15.5 C3.69798687 11.68616945 3.53466519 8.5828445 3 4 C1.06641756 1.65952546 1.06641756 1.65952546 -2.375 1.5625 C-6.12544943 1.636764 -6.12544943 1.636764 -8.375 4.375 Z " fill="#282727" transform="translate(309,134)"/>
<path d="M0 0 C4.00079356 2.4449294 5.65936873 3.95918222 7.125 8.4375 C6.96449409 13.01191855 6.16326735 14.68610087 3 18 C0.0722477 19.33811359 -2.87623767 20.23908353 -6 21 C-6.98929461 19.13032395 -7.96600469 17.25398622 -8.9375 15.375 C-9.75541016 13.80878906 -9.75541016 13.80878906 -10.58984375 12.2109375 C-11.96669717 9.07583082 -12.59842216 6.38545368 -13 3 C-8.47355803 0.35037543 -5.24616627 -0.74945232 0 0 Z M-10 3 C-9.37183502 6.94949704 -8.1354471 10.19892028 -6.4375 13.8125 C-5.98246094 14.78832031 -5.52742187 15.76414063 -5.05859375 16.76953125 C-4.70925781 17.50558594 -4.35992187 18.24164063 -4 19 C0.62710471 17.35948991 0.62710471 17.35948991 4 14 C4.7378774 9.84943961 4.15406874 8.25211249 1.9375 4.625 C-0.80947425 1.66496874 -0.80947425 1.66496874 -4.6875 1.5625 C-7.87138281 1.79975454 -7.87138281 1.79975454 -10 3 Z " fill="#262626" transform="translate(204,132)"/>
<path d="M0 0 C2 2 2 2 2.3125 4.9375 C2 8 2 8 0.875 9.8125 C-1.66676215 11.42228269 -4.0398108 11.67109009 -7 12 C-8.60355101 8.49223216 -9.22036864 5.85645121 -9 2 C-9.66 1.67 -10.32 1.34 -11 1 C-7.07703567 -0.30765478 -4.13997567 -0.1971417 0 0 Z " fill="#EAE9E7" transform="translate(287,364)"/>
<path d="M0 0 C0.99 0.33 1.98 0.66 3 1 C3.33 6.28 3.66 11.56 4 17 C6.31 14.03 8.62 11.06 11 8 C11.33 8.66 11.66 9.32 12 10 C10.75314243 11.58580914 9.50236974 13.1685404 8.25 14.75 C7.55390625 15.63171875 6.8578125 16.5134375 6.140625 17.421875 C4 20 4 20 0 24 C-0.33 17.73 -0.66 11.46 -1 5 C-3.64 8.3 -6.28 11.6 -9 15 C-9.66 14.67 -10.32 14.34 -11 14 C-7.37 9.38 -3.74 4.76 0 0 Z " fill="#232323" transform="translate(326,146)"/>
<path d="M0 0 C0.33 0.99 0.66 1.98 1 3 C-1.64 2.34 -4.28 1.68 -7 1 C-6.02454073 4.81315895 -5.23137904 6.77412999 -2.375 9.5625 C0 12 0 12 0.5 14.625 C0 17 0 17 -1 18.875 C-4.24028803 20.69766202 -7.47896415 19.80737128 -11 19 C-11.66 18.67 -12.32 18.34 -13 18 C-13 17.34 -13 16.68 -13 16 C-10.03 16.33 -7.06 16.66 -4 17 C-4.31520162 13.32264776 -4.82309044 12.16827983 -7.5625 9.5625 C-10 7 -10 7 -10.5 3.8125 C-10.335 2.884375 -10.17 1.95625 -10 1 C-6.1496895 -1.56687367 -4.41430237 -0.83288724 0 0 Z " fill="#222222" transform="translate(276,123)"/>
<path d="M0 0 C0.87978516 0.17402344 1.75957031 0.34804687 2.66601562 0.52734375 C6.66467291 1.34711404 10.07599795 2.16793764 13.6875 4.125 C10.55428365 5.11850215 8.4544302 5.08226306 5.2578125 4.3828125 C4.38979004 4.20395508 3.52176758 4.02509766 2.62744141 3.84082031 C1.69851074 3.64584961 0.76958008 3.45087891 -0.1875 3.25 C-11.55074716 0.99988987 -22.74965847 0.32103765 -34.3125 0.125 C-34.3125 -0.205 -34.3125 -0.535 -34.3125 -0.875 C-32.0002867 -1.04559808 -29.68770966 -1.21126834 -27.375 -1.375 C-26.08722656 -1.4678125 -24.79945313 -1.560625 -23.47265625 -1.65625 C-15.32341822 -2.1236941 -8.00714218 -1.69139633 0 0 Z " fill="#262626" transform="translate(279.3125,93.875)"/>
<path d="M0 0 C3.15747633 0 4.35264841 1.28995536 6.8125 3.3125 C9 6 9 6 9.125 8.1875 C8 10 8 10 3 12 C1.02 9.03 -0.96 6.06 -3 3 C-2.01 2.01 -1.02 1.02 0 0 Z " fill="#ECEBE8" transform="translate(327,341)"/>
<path d="M0 0 C5.37297376 -0.18852539 10.36788825 0.14132751 15.6875 0.9375 C25.74343156 2.38432281 35.85602539 2.65802141 46 3 C46 3.33 46 3.66 46 4 C41.69908854 4.0754071 37.39854974 4.12917959 33.09716797 4.16479492 C31.6407194 4.17967624 30.18431392 4.19998796 28.72802734 4.22631836 C18.68705083 4.40302292 9.77309341 3.57130725 0 1 C0 0.67 0 0.34 0 0 Z " fill="#0E0E0E" transform="translate(217,404)"/>
<path d="M0 0 C1.796875 0.15234375 1.796875 0.15234375 4 1 C5.703125 3.50390625 5.703125 3.50390625 7.25 6.5625 C8.03117188 8.08037109 8.03117188 8.08037109 8.828125 9.62890625 C9.21484375 10.41136719 9.6015625 11.19382813 10 12 C10.99 11.01 11.98 10.02 13 9 C12.88637738 10.4800841 12.75877092 11.95910074 12.625 13.4375 C12.55539063 14.26121094 12.48578125 15.08492187 12.4140625 15.93359375 C12.27742187 16.61550781 12.14078125 17.29742187 12 18 C11.34 18.33 10.68 18.66 10 19 C8.32626249 16.21251481 6.66223733 13.41935573 5 10.625 C4.28457031 9.43390625 4.28457031 9.43390625 3.5546875 8.21875 C3.10351562 7.45820313 2.65234375 6.69765625 2.1875 5.9140625 C1.76855469 5.2123291 1.34960938 4.5105957 0.91796875 3.78759766 C0 2 0 2 0 0 Z " fill="#282828" transform="translate(227,123)"/>
<path d="M0 0 C1.66482422 0.16242188 1.66482422 0.16242188 3.36328125 0.328125 C6.48876122 0.72477816 9.58466831 1.20547886 12.6875 1.75 C11.6975 2.245 11.6975 2.245 10.6875 2.75 C10.6875 3.41 10.6875 4.07 10.6875 4.75 C8.29135425 4.60834107 5.89567103 4.46181159 3.5 4.3125 C2.82646484 4.27318359 2.15292969 4.23386719 1.45898438 4.19335938 C-2.20949102 3.96072435 -5.72944206 3.57792989 -9.3125 2.75 C-6.62622304 -0.93295216 -4.31120352 -0.45747488 0 0 Z " fill="#1D1D1D" transform="translate(310.3125,228.25)"/>
<path d="M0 0 C0.78117187 0.10183594 1.56234375 0.20367187 2.3671875 0.30859375 C2.94726562 0.39238281 3.52734375 0.47617187 4.125 0.5625 C4.125 0.8925 4.125 1.2225 4.125 1.5625 C-4.93578402 3.50109612 -13.39694773 3.66913112 -22.625 3.1875 C-24.54699219 3.10242188 -24.54699219 3.10242188 -26.5078125 3.015625 C-29.63090823 2.87578489 -32.7529919 2.72455746 -35.875 2.5625 C-35.875 2.2325 -35.875 1.9025 -35.875 1.5625 C-34.78614502 1.52491577 -34.78614502 1.52491577 -33.67529297 1.48657227 C-30.36670554 1.37008759 -27.05836624 1.24759986 -23.75 1.125 C-22.60789063 1.08568359 -21.46578125 1.04636719 -20.2890625 1.00585938 C-18.62617188 0.94301758 -18.62617188 0.94301758 -16.9296875 0.87890625 C-15.91374512 0.84224854 -14.89780273 0.80559082 -13.85107422 0.76782227 C-0.91440296 -0.12469131 -0.91440296 -0.12469131 0 0 Z " fill="#353534" transform="translate(276.875,404.4375)"/>
<path d="M0 0 C-0.99 0.66 -1.98 1.32 -3 2 C-7.85573622 6.39255884 -7.85573622 6.39255884 -9.125 12.5 C-9.24773947 15.85035871 -9.24773947 15.85035871 -8 18 C-11.875 16.25 -11.875 16.25 -13 14 C-13.67660495 8.13609041 -13.67660495 8.13609041 -11.953125 5.2421875 C-8.04057963 0.47808814 -5.99583841 -0.13034431 0 0 Z " fill="#1C1C1C" transform="translate(308,134)"/>
<path d="M0 0 C0.99 0 1.98 0 3 0 C3 6.6 3 13.2 3 20 C2.01 20 1.02 20 0 20 C0 13.4 0 6.8 0 0 Z " fill="#272726" transform="translate(252,121)"/>
<path d="M0 0 C3.29222572 0.26214444 4.22141616 1.22174712 6.61328125 3.6171875 C7.52285241 4.69490355 8.42234211 5.78119448 9.3125 6.875 C9.77978516 7.41769531 10.24707031 7.96039063 10.72851562 8.51953125 C12.05078125 10.1171875 12.05078125 10.1171875 14 13 C13.67 13.99 13.34 14.98 13 16 C8.83904554 13.06285567 6.19317634 9.74633413 3.33203125 5.609375 C2.89246094 5.07828125 2.45289063 4.5471875 2 4 C1.34 4 0.68 4 0 4 C0 2.68 0 1.36 0 0 Z " fill="#131313" transform="translate(177,143)"/>
<path d="M0 0 C0.99 0 1.98 0 3 0 C1.64746536 6.45054982 -0.03060233 12.71105679 -2 19 C-2.99 19 -3.98 19 -5 19 C-4.39297368 12.3227105 -2.22368606 6.29872004 0 0 Z " fill="#1A1A19" transform="translate(288,127)"/>
<path d="M0 0 C1.76185304 2.64277956 2.38438582 3.94867484 3.0703125 6.90625 C3.33134766 8.02193359 3.33134766 8.02193359 3.59765625 9.16015625 C3.85869141 10.31837891 3.85869141 10.31837891 4.125 11.5 C4.39763672 12.65822266 4.39763672 12.65822266 4.67578125 13.83984375 C5.39270041 16.95008704 6 19.79781695 6 23 C5.01 23 4.02 23 3 23 C2.29995665 20.1066878 1.6146758 17.21116999 0.9375 14.3125 C0.73833984 13.49587891 0.53917969 12.67925781 0.33398438 11.83789062 C-0.64631933 7.58990788 -1.38415975 4.27435495 0 0 Z " fill="#343333" transform="translate(401,202)"/>
<path d="M0 0 C0.66 0.66 1.32 1.32 2 2 C-3.18242136 5.31099143 -6.73685107 6.12889362 -12.859375 6.09765625 C-13.97441406 6.09443359 -15.08945312 6.09121094 -16.23828125 6.08789062 C-17.39714844 6.07951172 -18.55601562 6.07113281 -19.75 6.0625 C-20.92433594 6.05798828 -22.09867188 6.05347656 -23.30859375 6.04882812 C-26.20578072 6.03705094 -29.10286454 6.02060326 -32 6 C-32 5.67 -32 5.34 -32 5 C-31.31486328 4.95512451 -30.62972656 4.91024902 -29.92382812 4.86401367 C-26.78155908 4.65104591 -23.64092505 4.41941714 -20.5 4.1875 C-19.42234375 4.11724609 -18.3446875 4.04699219 -17.234375 3.97460938 C-10.93487884 3.49446485 -5.78535325 2.56268681 0 0 Z " fill="#2D2D2D" transform="translate(273,271)"/>
<path d="M0 0 C1.19923096 0.01571045 2.39846191 0.0314209 3.6340332 0.04760742 C4.93276367 0.05727539 6.23149414 0.06694336 7.56958008 0.0769043 C8.94133084 0.10197033 10.31307563 0.12736516 11.68481445 0.15307617 C13.06826369 0.16812598 14.45172846 0.18181387 15.83520508 0.1940918 C19.22296653 0.22950394 22.60994585 0.27889563 25.99731445 0.34057617 C25.99731445 0.67057617 25.99731445 1.00057617 25.99731445 1.34057617 C10.15731445 2.33057617 10.15731445 2.33057617 -6.00268555 3.34057617 C-3.00268555 0.34057617 -3.00268555 0.34057617 0 0 Z " fill="#050505" transform="translate(234.002685546875,91.659423828125)"/>
<path d="M0 0 C-1.12456498 3.37369495 -2.40690577 4.14038221 -5.109375 6.265625 C-8.49675167 9.37305319 -11.21213137 13.06577256 -14.046875 16.671875 C-16 19 -16 19 -18 20 C-16.96355251 14.06994599 -6.19148217 0 0 0 Z " fill="#1E1E1E" transform="translate(144,134)"/>
<path d="M0 0 C4.29 0 8.58 0 13 0 C13 0.66 13 1.32 13 2 C13.66 2.33 14.32 2.66 15 3 C8.07 3 1.14 3 -6 3 C-6 2.67 -6 2.34 -6 2 C-4.02 2 -2.04 2 0 2 C0 1.34 0 0.68 0 0 Z " fill="#313131" transform="translate(327,279)"/>
<path d="M0 0 C-1.25496454 3.47528641 -2.69582535 6.11978169 -5 9 C-5.99 10.485 -5.99 10.485 -7 12 C-7 8.72724974 -6.70074844 6.153368 -6 3 C-7.98 3.66 -9.96 4.32 -12 5 C-12.33 4.34 -12.66 3.68 -13 3 C-11.58603098 2.49242138 -10.16868271 1.99425075 -8.75 1.5 C-7.96109375 1.2215625 -7.1721875 0.943125 -6.359375 0.65625 C-4 0 -4 0 0 0 Z " fill="#373636" transform="translate(149,316)"/>
<path d="M0 0 C3.38266921 0.2818891 4.81072018 0.83064437 7.375 3.125 C9.47828033 6.84618828 8.95918017 8.92348429 8 13 C7.01 13 6.02 13 5 13 C5.1546875 11.7315625 5.1546875 11.7315625 5.3125 10.4375 C4.8968594 5.86545337 2.86470536 3.45810861 0 0 Z " fill="#141414" transform="translate(202,133)"/>
<path d="M0 0 C3 1 3 1 4.38671875 3.28515625 C4.81597656 4.20167969 5.24523437 5.11820312 5.6875 6.0625 C6.34298828 7.44115234 6.34298828 7.44115234 7.01171875 8.84765625 C7.33785156 9.55792969 7.66398437 10.26820313 8 11 C6.35 11 4.7 11 3 11 C3.33 10.34 3.66 9.68 4 9 C3.67 8.34 3.34 7.68 3 7 C2.01 6.67 1.02 6.34 0 6 C0 7.98 0 9.96 0 12 C-0.99 12 -1.98 12 -3 12 C-2.34 9.36 -1.68 6.72 -1 4 C-0.01 4 0.98 4 2 4 C1.34 3.67 0.68 3.34 0 3 C0 2.01 0 1.02 0 0 Z " fill="#4D4C4B" transform="translate(261,368)"/>
<path d="M0 0 C0.66 0 1.32 0 2 0 C2.33 3.96 2.66 7.92 3 12 C1.35 12 -0.3 12 -2 12 C-1.979375 11.21625 -1.95875 10.4325 -1.9375 9.625 C-1.81315937 7.01885039 -1.81315937 7.01885039 -3 5 C-1.6875 2.375 -1.6875 2.375 0 0 Z " fill="#656564" transform="translate(245,368)"/>
<path d="M0 0 C7.08076251 -0.40850553 13.19925959 1.09579269 20 3 C17 5 17 5 14.51171875 4.828125 C13.57972656 4.63734375 12.64773437 4.4465625 11.6875 4.25 C10.71554688 4.05148437 9.74359375 3.85296875 8.7421875 3.6484375 C5.75391805 2.94180968 2.87261666 2.08693603 0 1 C0 0.67 0 0.34 0 0 Z " fill="#302F2F" transform="translate(200,400)"/>
<path d="M0 0 C3 1 3 1 4.6875 4.375 C6 8 6 8 6 11 C5.34 11 4.68 11 4 11 C3.34 9.35 2.68 7.7 2 6 C2 7.98 2 9.96 2 12 C0.68 11.67 -0.64 11.34 -2 11 C-1.34 7.37 -0.68 3.74 0 0 Z " fill="#4B4B4A" transform="translate(235,367)"/>
<path d="M0 0 C0.66 0 1.32 0 2 0 C2.20496094 0.69867188 2.40992188 1.39734375 2.62109375 2.1171875 C2.89050781 3.02726562 3.15992188 3.93734375 3.4375 4.875 C3.83775391 6.23238281 3.83775391 6.23238281 4.24609375 7.6171875 C4.92613826 9.98275381 4.92613826 9.98275381 6 12 C5.67 12.66 5.34 13.32 5 14 C4.34 14 3.68 14 3 14 C2.01 10.7 1.02 7.4 0 4 C-0.99 4.99 -1.98 5.98 -3 7 C-1.125 1.125 -1.125 1.125 0 0 Z " fill="#3D3D3C" transform="translate(184,350)"/>
<path d="M0 0 C0.66 0.33 1.32 0.66 2 1 C1.01 1.66 0.02 2.32 -1 3 C-1.33 3.99 -1.66 4.98 -2 6 C-0.35 5.67 1.3 5.34 3 5 C2.67 5.99 2.34 6.98 2 8 C1.21625 7.835 0.4325 7.67 -0.375 7.5 C-3.6518327 6.87584139 -4.77779 6.92593 -8 8 C-8.33 6.68 -8.66 5.36 -9 4 C-7.54618103 3.30300448 -6.08677047 2.61766134 -4.625 1.9375 C-3.40683594 1.36322266 -3.40683594 1.36322266 -2.1640625 0.77734375 C-1.44992188 0.52082031 -0.73578125 0.26429688 0 0 Z " fill="#545352" transform="translate(136,299)"/>
<path d="M0 0 C0.99 0.33 1.98 0.66 3 1 C1.515 2.485 1.515 2.485 0 4 C1.32 4.66 2.64 5.32 4 6 C4 6.99 4 7.98 4 9 C5.65 8.34 7.3 7.68 9 7 C8.25 8.9375 8.25 8.9375 7 11 C5.68 11.33 4.36 11.66 3 12 C1.02 9.03 -0.96 6.06 -3 3 C-2.01 2.01 -1.02 1.02 0 0 Z " fill="#454544" transform="translate(327,341)"/>
<path d="M0 0 C-1.96438331 1.46800688 -3.46736426 2.03217444 -5.92382812 1.88378906 C-8.21441069 1.52249521 -10.47864357 1.09207827 -12.75 0.625 C-13.93916016 0.39683594 -13.93916016 0.39683594 -15.15234375 0.1640625 C-17.1038785 -0.21213697 -19.05228438 -0.60450316 -21 -1 C-21 -1.33 -21 -1.66 -21 -2 C-13.91326846 -3.99314325 -6.89954171 -1.84809153 0 0 Z " fill="#353534" transform="translate(293,97)"/>
<path d="M0 0 C0.598125 0.20625 1.19625 0.4125 1.8125 0.625 C0.8225 0.955 -0.1675 1.285 -1.1875 1.625 C-0.61165568 4.01064077 0.03477595 6.29182784 0.8125 8.625 C1.8025 8.625 2.7925 8.625 3.8125 8.625 C4.4725 7.965 5.1325 7.305 5.8125 6.625 C5.4825 7.945 5.1525 9.265 4.8125 10.625 C3.1625 10.955 1.5125 11.285 -0.1875 11.625 C-1.8375 8.325 -3.4875 5.025 -5.1875 1.625 C-2.1875 -0.375 -2.1875 -0.375 0 0 Z " fill="#474746" transform="translate(302.1875,357.375)"/>
<path d="M0 0 C3 3 6 6 9 9 C8.34 9.66 7.68 10.32 7 11 C7 10.34 7 9.68 7 9 C3.37 9 -0.26 9 -4 9 C-3.67 8.01 -3.34 7.02 -3 6 C-1.35 5.67 0.3 5.34 2 5 C1.01 3.68 0.02 2.36 -1 1 C-0.67 0.67 -0.34 0.34 0 0 Z " fill="#3F3F3E" transform="translate(363,298)"/>
<path d="M0 0 C4.20240011 3.71750779 6.99782679 8.31660979 10 13 C9.34 13.66 8.68 14.32 8 15 C6.84372186 13.44521347 5.7003781 11.88080281 4.5625 10.3125 C3.92441406 9.44238281 3.28632812 8.57226562 2.62890625 7.67578125 C1.01028351 5.01689258 0.3916038 3.06112831 0 0 Z " fill="#1C1C1B" transform="translate(114,329)"/>
<path d="M0 0 C4.05281712 1.22527029 7.44360764 2.69880494 11 5 C8.50907189 6.24546405 7.58919267 5.7767578 5 5 C4.34 6.32 3.68 7.64 3 9 C0 3.375 0 3.375 0 0 Z " fill="#464544" transform="translate(340,330)"/>
<path d="M0 0 C-0.33 0.99 -0.66 1.98 -1 3 C-2.95689659 3.22142255 -4.91561952 3.4267568 -6.875 3.625 C-8.51082031 3.79902344 -8.51082031 3.79902344 -10.1796875 3.9765625 C-11.57574219 3.98816406 -11.57574219 3.98816406 -13 4 C-13.66 3.34 -14.32 2.68 -15 2 C-9.92523206 0.73694665 -5.27203646 -0.27036084 0 0 Z " fill="#363635" transform="translate(229,93)"/>
<path d="M0 0 C0.66 0 1.32 0 2 0 C3.98 4.29 5.96 8.58 8 13 C7.01 13 6.02 13 5 13 C4.15930585 11.39967863 3.32768495 9.79458829 2.5 8.1875 C1.80390625 6.84751953 1.80390625 6.84751953 1.09375 5.48046875 C0 3 0 3 0 0 Z " fill="#232323" transform="translate(387,172)"/>
<path d="M0 0 C1.859375 0.24609375 1.859375 0.24609375 4 1 C5.265625 2.84765625 5.265625 2.84765625 6.25 5.0625 C6.75273437 6.16271484 6.75273437 6.16271484 7.265625 7.28515625 C7.50796875 7.85105469 7.7503125 8.41695312 8 9 C6.68 9 5.36 9 4 9 C0 2.25 0 2.25 0 0 Z " fill="#171717" transform="translate(227,123)"/>
<path d="M0 0 C-3.46741134 2.95749791 -6.86873527 5.07848152 -11 7 C-11.66 6.34 -12.32 5.68 -13 5 C-11.40377344 3.96679519 -9.79770894 2.94877571 -8.1875 1.9375 C-7.29417969 1.36902344 -6.40085937 0.80054688 -5.48046875 0.21484375 C-3 -1 -3 -1 0 0 Z " fill="#292928" transform="translate(336,383)"/>
<path d="M0 0 C-1.59720719 4.3124594 -4.31633819 6.42143673 -8 9 C-10.1953125 8.63671875 -10.1953125 8.63671875 -12 8 C-10.37982158 6.66081194 -8.75370657 5.3288031 -7.125 4 C-6.22007812 3.2575 -5.31515625 2.515 -4.3828125 1.75 C-2 0 -2 0 0 0 Z " fill="#201F1F" transform="translate(358,365)"/>
<path d="M0 0 C0.89332031 0.12761719 1.78664063 0.25523437 2.70703125 0.38671875 C3.60808594 0.50660156 4.50914062 0.62648437 5.4375 0.75 C6.12457031 0.85699219 6.81164062 0.96398437 7.51953125 1.07421875 C7.51953125 1.73421875 7.51953125 2.39421875 7.51953125 3.07421875 C3.22953125 3.07421875 -1.06046875 3.07421875 -5.48046875 3.07421875 C-2.48046875 0.07421875 -2.48046875 0.07421875 0 0 Z " fill="#121212" transform="translate(306.48046875,227.92578125)"/>
<path d="M0 0 C0.33 0.99 0.66 1.98 1 3 C-1.64 2.34 -4.28 1.68 -7 1 C-7.33 2.32 -7.66 3.64 -8 5 C-8.66 3.68 -9.32 2.36 -10 1 C-6.1496895 -1.56687367 -4.41430237 -0.83288724 0 0 Z " fill="#474645" transform="translate(276,123)"/>
<path d="M0 0 C1.32 0.33 2.64 0.66 4 1 C4.45572917 3.01822917 4.91145833 5.03645833 5.3671875 7.0546875 C5.90474428 9.20719964 5.90474428 9.20719964 8 11 C6.68 11 5.36 11 4 11 C2.39644899 7.49223216 1.77963136 4.85645121 2 1 C1.34 0.67 0.68 0.34 0 0 Z " fill="#424241" transform="translate(276,365)"/>
<path d="M0 0 C0.66 0.33 1.32 0.66 2 1 C0.35 4.3 -1.3 7.6 -3 11 C-3.66 11 -4.32 11 -5 11 C-3.77472971 6.94718288 -2.30119506 3.55639236 0 0 Z " fill="#191918" transform="translate(111,174)"/>
<path d="M0 0 C0.99 0.33 1.98 0.66 3 1 C2.67 2.32 2.34 3.64 2 5 C0.35 5 -1.3 5 -3 5 C-2.625 3.0625 -2.625 3.0625 -2 1 C-1.34 0.67 -0.68 0.34 0 0 Z " fill="#C9C8C6" transform="translate(137,300)"/>
<path d="M0 0 C2.72106694 2.72106694 2.60655572 4.84776311 3.125 8.625 C3.29257813 9.81351563 3.46015625 11.00203125 3.6328125 12.2265625 C3.75398437 13.14179688 3.87515625 14.05703125 4 15 C1 13 1 13 0.234375 10.21484375 C0.07453125 9.13332031 -0.0853125 8.05179688 -0.25 6.9375 C-0.42015625 5.85339844 -0.5903125 4.76929688 -0.765625 3.65234375 C-0.84296875 2.77707031 -0.9203125 1.90179688 -1 1 C-0.67 0.67 -0.34 0.34 0 0 Z " fill="#464544" transform="translate(178,146)"/>
<path d="M0 0 C2.0625 0.4375 2.0625 0.4375 4 1 C4.33 2.32 4.66 3.64 5 5 C3.35 5 1.7 5 0 5 C-0.5625 3.0625 -0.5625 3.0625 -1 1 C-0.67 0.67 -0.34 0.34 0 0 Z " fill="#C4C3C1" transform="translate(301,358)"/>
<path d="M0 0 C-7 4.66666667 -7 4.66666667 -11 6 C-8.60159776 0.46522561 -5.82500047 -0.25888891 0 0 Z " fill="#101010" transform="translate(308,134)"/>
<path d="M0 0 C3.875 0.875 3.875 0.875 5 2 C5.23529412 7.52941176 5.23529412 7.52941176 4 10 C3.34 9.67 2.68 9.34 2 9 C2.04125 8.071875 2.0825 7.14375 2.125 6.1875 C2.27136339 2.84190281 2.27136339 2.84190281 0 0 Z " fill="#4A4A48" transform="translate(284,364)"/>
<path d="M0 0 C4.12751449 0.60698743 7.3321148 2.03810791 11 4 C11 4.33 11 4.66 11 5 C4.6 4.50769231 4.6 4.50769231 1.5625 1.9375 C1.046875 1.298125 0.53125 0.65875 0 0 Z " fill="#171616" transform="translate(174,388)"/>
<path d="M0 0 C0.66 0.66 1.32 1.32 2 2 C0.02 4.64 -1.96 7.28 -4 10 C-4.99 9.67 -5.98 9.34 -7 9 C-6.57847656 8.51789063 -6.15695313 8.03578125 -5.72265625 7.5390625 C-5.17480469 6.90742188 -4.62695312 6.27578125 -4.0625 5.625 C-3.51722656 4.99851562 -2.97195312 4.37203125 -2.41015625 3.7265625 C-0.93041376 2.04367666 -0.93041376 2.04367666 0 0 Z " fill="#2F2E2E" transform="translate(173,342)"/>
<path d="M0 0 C0.99 0.33 1.98 0.66 3 1 C1.68 3.64 0.36 6.28 -1 9 C-1.66 8.67 -2.32 8.34 -3 8 C-1.125 2.25 -1.125 2.25 0 0 Z " fill="#292929" transform="translate(390,319)"/>
<path d="M0 0 C3 1 3 1 4.1875 3.0625 C4.455625 3.701875 4.72375 4.34125 5 5 C2.625 5.1875 2.625 5.1875 0 5 C-0.66 4.01 -1.32 3.02 -2 2 C-1.34 1.34 -0.68 0.68 0 0 Z " fill="#D4D3D0" transform="translate(328,342)"/>
<path d="M0 0 C-0.5 1.9375 -0.5 1.9375 -2 4 C-4.69658452 4.68790422 -7.2017019 4.81946464 -10 5 C-10.33 4.34 -10.66 3.68 -11 3 C-9.54293274 2.49632243 -8.08429904 1.99717444 -6.625 1.5 C-5.81289062 1.2215625 -5.00078125 0.943125 -4.1640625 0.65625 C-2 0 -2 0 0 0 Z " fill="#6D6C6B" transform="translate(147,316)"/>
<path d="M0 0 C-1.09898702 3.29696105 -1.94597387 4.04670589 -4.5625 6.1875 C-5.20316406 6.71730469 -5.84382812 7.24710938 -6.50390625 7.79296875 C-6.99761719 8.19128906 -7.49132812 8.58960938 -8 9 C-8.66 8.67 -9.32 8.34 -10 8 C-8.71451591 6.66070495 -7.42141845 5.32871357 -6.125 4 C-5.04605469 2.88625 -5.04605469 2.88625 -3.9453125 1.75 C-2 0 -2 0 0 0 Z " fill="#0C0C0B" transform="translate(144,134)"/>
<path d="M0 0 C1.98 0 3.96 0 6 0 C5.34 1.32 4.68 2.64 4 4 C2.68 3.67 1.36 3.34 0 3 C0 2.01 0 1.02 0 0 Z " fill="#F0EFEC" transform="translate(302,363)"/>
<path d="M0 0 C-0.33 0.66 -0.66 1.32 -1 2 C-3.06640625 2.4140625 -3.06640625 2.4140625 -5.5625 2.625 C-6.38878906 2.69976562 -7.21507812 2.77453125 -8.06640625 2.8515625 C-9.02353516 2.92503906 -9.02353516 2.92503906 -10 3 C-6.93361469 -0.59474709 -4.63005752 -0.26207873 0 0 Z " fill="#1D1D1C" transform="translate(238,92)"/>
<path d="M0 0 C0.66 0 1.32 0 2 0 C1.25 2.875 1.25 2.875 0 6 C-1.98 6.99 -1.98 6.99 -4 8 C-2.68 5.36 -1.36 2.72 0 0 Z " fill="#161515" transform="translate(386,327)"/>
<path d="M0 0 C0.66 0.66 1.32 1.32 2 2 C1.625 5.125 1.625 5.125 1 8 C0.01 8.33 -0.98 8.66 -2 9 C-1.34 6.03 -0.68 3.06 0 0 Z " fill="#3A3A39" transform="translate(98,203)"/>
<path d="M0 0 C1.1446875 0.556875 1.1446875 0.556875 2.3125 1.125 C3.6428125 1.558125 3.6428125 1.558125 5 2 C5.99 1.34 6.98 0.68 8 0 C7.25 1.9375 7.25 1.9375 6 4 C3.875 4.75 3.875 4.75 2 5 C1.34 3.35 0.68 1.7 0 0 Z " fill="#3E3D3D" transform="translate(328,348)"/>
<path d="M0 0 C0.75 1.75 0.75 1.75 1 4 C-0.9375 6.25 -0.9375 6.25 -3 8 C-3 3.73173127 -2.62386487 3.06117568 0 0 Z " fill="#292929" transform="translate(125,152)"/>
<path d="M0 0 C0.33 0.66 0.66 1.32 1 2 C1.66 2.33 2.32 2.66 3 3 C2.67 4.32 2.34 5.64 2 7 C1.01 7 0.02 7 -1 7 C-0.67 4.69 -0.34 2.38 0 0 Z " fill="#303030" transform="translate(284,139)"/>
<path d="M0 0 C-0.33 0.99 -0.66 1.98 -1 3 C-3.5625 4.1875 -3.5625 4.1875 -6 5 C-6.66 4.34 -7.32 3.68 -8 3 C-2.25 0 -2.25 0 0 0 Z " fill="#2D2D2C" transform="translate(191,103)"/>
</svg>
